<?xml version="1.0" encoding="UTF-8" standalone="no"?>
<!-- Created with Inkscape (http://www.inkscape.org/) -->

<svg
   width="200"
   height="200"
   viewBox="0 0 52.916666 52.916665"
   version="1.1"
   id="svg5"
   xmlns="http://www.w3.org/2000/svg"
   xmlns:svg="http://www.w3.org/2000/svg">
  <defs
     id="defs2" />
  <g
     id="layer1"
     transform="translate(-68.436468,-74.329449)">
    <path
       style="opacity:1;fill:#c9b8bc;fill-opacity:1;stroke:#000000;stroke-width:0.521067;stroke-linecap:butt;stroke-linejoin:miter;stroke-miterlimit:4;stroke-dasharray:none;stroke-opacity:1"
       d="m 82.160166,98.063676 c 0,0 -1.644192,-0.954438 -2.109569,-3.144672 -0.465385,-2.190234 1.267834,-2.811375 2.353665,-1.625703 1.085842,1.185672 0.834636,0.627791 0.834636,0.627791 l -1.078732,4.142584"
       id="path62639" />
    <path
       style="fill:#c9b8bc;fill-opacity:1;stroke:#000000;stroke-width:0.521067;stroke-linecap:butt;stroke-linejoin:miter;stroke-miterlimit:4;stroke-dasharray:none;stroke-opacity:1"
       d="m 105.15219,118.18461 c 0,0 0.62497,1.79547 -0.44954,3.75995 -1.0745,1.96446 -2.79387,1.30595 -2.84465,-0.30098 -0.0508,-1.60696 -0.22388,-1.02012 -0.22388,-1.02012 l 3.51807,-2.43885"
       id="path62639-9" />
    <path
       style="fill:#79d4fd;fill-opacity:1;stroke:#000000;stroke-width:0.521067;stroke-linecap:butt;stroke-linejoin:miter;stroke-miterlimit:4;stroke-dasharray:none;stroke-opacity:1"
       d="m 100.77935,80.080338 c 2.61219,0.612608 3.89435,-0.736734 4.9696,-0.335902 1.07523,0.40083 0.196,3.010135 0.0662,3.84388 -1.61193,-1.1261 -3.9035,-2.462047 -5.03588,-3.507978 z"
       id="path30011" />
    <path
       id="path8123-3"
       style="fill:#ffffff;fill-opacity:1;stroke:#000000;stroke-width:1.04213;stroke-linecap:round;stroke-linejoin:round;stroke-miterlimit:4;stroke-dasharray:none;stroke-opacity:1;paint-order:stroke fill markers"
       d="m 93.822902,85.199362 c 0,1.844283 -1.523439,4.36088 -3.691705,4.183711 -3.490109,-0.285178 -6.699492,-2.435987 -6.699492,-6.138924 0,-3.702938 2.082765,-4.359636 5.584503,-4.359634 3.501728,4e-6 4.806694,2.611916 4.806694,6.314847 z" />
    <path
       id="path912"
       style="fill:#2c2b3c;fill-opacity:1;stroke:#000000;stroke-width:0.521067;stroke-linecap:butt;stroke-linejoin:miter;stroke-miterlimit:4;stroke-dasharray:none;stroke-opacity:1;paint-order:normal"
       d="m 106.91164,114.05426 c -0.63119,-0.0768 -1.25297,-0.15946 -1.85119,-0.25595 -0.68772,-0.11087 -1.35433,-0.23419 -1.99982,-0.36944 -0.64549,-0.13523 -1.2699,-0.28241 -1.87462,-0.44016 -0.60472,-0.15774 -1.189647,-0.32632 -1.755034,-0.50478 -0.565379,-0.17844 -1.111519,-0.36697 -1.63902,-0.56431 -0.527491,-0.19735 -1.036025,-0.40332 -1.527063,-0.61775 -0.491046,-0.21443 -0.964193,-0.43691 -1.420224,-0.6666 -0.456021,-0.22971 -0.894967,-0.46668 -1.317421,-0.70985 -0.422444,-0.24317 -0.828393,-0.49268 -1.218706,-0.74752 -0.390303,-0.25483 -0.76496,-0.51487 -1.12457,-0.77957 -0.3596,-0.26468 -0.704164,-0.53379 -1.0345,-0.80652 -0.330334,-0.27274 -0.6465,-0.54946 -0.949008,-0.82842 -0.302517,-0.27896 -0.591475,-0.56028 -0.867604,-0.84368 -0.276118,-0.28339 -0.539583,-0.56886 -0.790757,-0.85488 -0.251176,-0.28601 -0.490339,-0.57262 -0.717991,-0.85945 -0.22766,-0.28682 -0.443722,-0.57363 -0.649297,-0.85945 -0.09551,-0.0408 -0.187722,-0.079 -0.284458,-0.12061 l 0.03467,-0.23253 c -0.293675,-0.42496 -0.564328,-0.84692 -0.814174,-1.26299 -0.249847,-0.41606 -0.478709,-0.82616 -0.689492,-1.22735 -0.210784,-0.4012 -0.403607,-0.793605 -0.580103,-1.17393 -0.176487,-0.380328 -0.336952,-0.748722 -0.483918,-1.10218 -0.146966,-0.353456 -0.280303,-0.692035 -0.402504,-1.012619 -0.1222,-0.320586 -0.233126,-0.623031 -0.335337,-0.904744 -0.138567,-0.38193 -0.271213,-0.656774 -0.357217,-0.95919 -0.70704,3.357814 -1.110183,6.830153 -1.586607,10.045793 -0.865577,13.92141 18.685071,21.04738 23.883095,13.41749 1.01328,-1.46682 1.83368,-3.06472 2.35293,-4.75881 z" />
    <path
       id="path21147"
       style="fill:#2c2b3c;fill-opacity:1;stroke:#000000;stroke-width:0.521067;stroke-linecap:butt;stroke-linejoin:round;stroke-miterlimit:4;stroke-dasharray:none;stroke-opacity:1;paint-order:normal"
       d="m 108.15682,107.53278 c -1.75855,-0.071 -3.32277,-0.12519 -4.73949,-0.19133 -0.7282,-0.034 -1.42135,-0.0713 -2.09037,-0.11603 -0.66902,-0.0447 -1.31387,-0.0971 -1.944834,-0.1608 -0.63097,-0.0637 -1.248343,-0.13861 -1.862398,-0.2295 -0.307038,-0.0453 -0.613248,-0.0948 -0.920009,-0.14858 -0.306772,-0.0537 -0.613927,-0.11195 -0.923072,-0.17504 -0.309135,-0.0631 -0.620091,-0.13107 -0.934248,-0.20457 -0.314166,-0.0734 -0.631779,-0.15274 -0.953597,-0.23764 -0.321817,-0.0848 -0.647938,-0.17543 -0.980055,-0.27273 -0.332118,-0.0973 -0.670105,-0.2012 -1.015161,-0.31193 0.201438,0.1648 0.409376,0.32705 0.623852,0.48697 0.214487,0.15993 0.435354,0.31749 0.663547,0.47222 0.228192,0.15472 0.463712,0.30675 0.70629,0.45593 0.24258,0.14919 0.492426,0.29582 0.750052,0.43914 0.257625,0.14332 0.52302,0.2832 0.796361,0.42032 0.273341,0.13712 0.554461,0.27142 0.844188,0.40199 0.289726,0.13057 0.587783,0.25745 0.894564,0.38114 0.306781,0.12368 0.622475,0.24379 0.946981,0.36027 0.324505,0.11651 0.658021,0.22947 1.000915,0.33838 0.34289,0.10895 0.694927,0.21395 1.056884,0.31498 0.36196,0.10103 0.73372,0.19825 1.1154,0.29107 0.3817,0.0929 0.77339,0.18136 1.17546,0.26562 0.40208,0.0844 0.81439,0.16381 1.23754,0.23916 0.42314,0.0754 0.85727,0.14658 1.30216,0.2127 0.44487,0.0661 0.90052,0.12764 1.3678,0.18421 0.40439,0.049 0.8215,0.0923 1.24313,0.13384 0.13743,-1.1331 0.26921,-2.28112 0.63811,-3.3498 z" />
    <path
       id="path21143"
       style="fill:#79d4fd;fill-opacity:1;stroke:#000000;stroke-width:0.521067;stroke-linecap:butt;stroke-linejoin:miter;stroke-miterlimit:4;stroke-dasharray:none;stroke-opacity:1;paint-order:normal"
       d="m 96.259802,78.934646 c -2.720915,0.08529 -5.208666,1.531013 -7.283238,3.197643 -2.855207,2.549175 -4.549708,5.747352 -5.635559,9.074912 0.163616,0.313495 0.32616,0.627751 0.478827,0.952066 0.197953,0.420513 0.388334,0.849237 0.575001,1.284349 0.373357,0.870226 0.732121,1.765698 1.108796,2.669961 0.188341,0.45213 0.381372,0.906636 0.582643,1.361186 0.201272,0.45455 0.410725,0.909293 0.63301,1.362202 0.222285,0.452909 0.45747,0.903801 0.708842,1.351005 0.125676,0.22361 0.255311,0.4462 0.389781,0.66762 0.13446,0.22142 0.273508,0.44177 0.417767,0.6605 0.319159,0.17356 0.643713,0.33714 0.97395,0.49155 0.330236,0.15441 0.666273,0.29941 1.008543,0.43609 0.342279,0.13668 0.690438,0.26482 1.045696,0.3852 0.355267,0.12038 0.717713,0.23338 1.086914,0.3389 0.369211,0.10547 0.745551,0.20406 1.129661,0.29615 0.384108,0.092 0.776007,0.17737 1.17596,0.25747 0.399963,0.0802 0.808049,0.15487 1.224812,0.22441 0.416771,0.0695 0.842188,0.13396 1.276723,0.19439 0.434527,0.0605 0.877914,0.11675 1.331159,0.16945 0.453246,0.0528 0.916256,0.10211 1.389173,0.14858 0.945827,0.093 1.931807,0.17486 2.962037,0.25138 1.03023,0.0765 2.10438,0.14723 3.22666,0.2188 1.0706,0.0683 2.19169,0.13773 3.35284,0.21169 0.0439,-0.0794 0.0821,-0.15604 0.12721,-0.23611 1.83912,-3.35487 4.46184,-6.470443 5.06004,-10.354173 0.26895,-1.778354 -0.53348,-3.620973 -1.99063,-4.667215 1.32088,0.911121 3.59188,-0.285597 3.06229,-1.977917 -0.61187,-1.871495 -2.96883,-1.6009 -4.45452,-1.103706 -1.33265,0.576673 -1.54141,-1.469552 -2.53104,-2.051702 -2.35797,-2.343524 -5.41052,-3.847648 -8.46989,-5.056996 -1.271684,-0.449612 -2.608096,-0.76604 -3.963458,-0.757685 z" />
    <path
       style="fill:#1e1c28;fill-opacity:1;stroke:#000000;stroke-width:0.521067;stroke-linecap:round;stroke-linejoin:miter;stroke-miterlimit:4;stroke-dasharray:none;stroke-opacity:1"
       d="m 88.791331,82.406996 c 8.484801,4.903162 17.715519,4.915529 21.730949,4.515615 0,0 -0.52753,-0.54479 -0.91603,-1.356427 -0.6652,-1.389674 -2.99178,-2.771463 -4.0045,-3.434061 -2.00267,-1.310292 -4.67515,-3.05236 -7.376506,-3.411923 -2.701356,-0.359563 -5.8238,0.120832 -9.433913,3.686796 z"
       id="path43366" />
    <path
       id="path8123"
       style="fill:#ffffff;fill-opacity:1;stroke:#000000;stroke-width:1.04213;stroke-linecap:round;stroke-linejoin:round;stroke-miterlimit:4;stroke-dasharray:none;stroke-opacity:1;paint-order:stroke fill markers"
       d="m 104.14727,89.843239 c 0,3.702933 -1.77728,5.394963 -5.279004,5.394966 -3.501739,3e-6 -6.831953,-1.945074 -6.831953,-5.64801 0,-3.702938 2.967651,-5.919767 6.469389,-5.919765 3.501718,4e-6 5.641568,2.469876 5.641568,6.172809 z" />
    <path
       style="mix-blend-mode:normal;fill:#000000;fill-opacity:1;stroke:#000000;stroke-width:0.146509;stroke-miterlimit:4;stroke-dasharray:none;stroke-opacity:1"
       d="m 97.12058,92.999157 c -0.146003,-0.275738 0.217484,-0.65461 0.09326,-0.987413 0.0031,-0.290014 0.330954,-0.364233 0.310671,-0.698159 0.07752,-0.292917 0.178667,-0.605235 0.08074,-0.866894 0.0045,-0.212814 0.03369,-0.329629 0.219037,-0.36443 0.211748,-0.224813 -0.493976,-0.536895 -0.06642,-0.578894 0.359519,-0.0274 0.756293,0.102632 1.012041,0.321522 -0.227255,0.137136 -0.517547,0.156551 -0.51174,0.481784 0.128845,0.03814 0.272612,0.06818 0.407218,0.103126 0.156501,-0.430957 0.291416,-0.869223 0.428277,-1.306684 -0.80235,-0.186705 -1.614752,-0.33317 -2.428065,-0.461348 -0.147854,0.416648 -0.260136,0.845081 -0.388281,1.268114 0.179981,0.01687 0.508489,0.269911 0.525299,-0.03469 -0.0555,-0.08658 -0.396449,-0.429795 -0.137053,-0.37691 0.318748,-0.03532 0.654198,0.05361 0.904331,0.246275 -0.178703,0.150485 -0.546579,0.304662 -0.325173,0.541972 -0.139209,0.347073 -0.339627,0.693991 -0.32174,1.097892 0.09013,0.343042 -0.208107,0.653295 -0.234748,0.998 -0.02024,0.146575 -0.05006,0.277238 -0.217969,0.179432 -0.08755,-0.05291 -0.336322,-0.01247 -0.297197,-0.138132 0.06304,-0.217173 0.126248,-0.434227 0.189363,-0.651372 -0.14735,0.06353 -0.421737,-0.144738 -0.458507,0.03079 -0.05139,0.208542 -0.102665,0.417013 -0.154042,0.62552 -0.254416,-0.07214 -0.524931,-0.105398 -0.765507,-0.213366 0.0628,-0.203558 0.165213,-0.412925 0.234,-0.62364 -0.20154,-0.04529 -0.400377,-0.113053 -0.607081,-0.126838 -0.108823,0.204969 -0.0036,0.619442 -0.13149,0.739281 -0.166074,-0.0406 -0.331882,-0.08203 -0.497909,-0.122559 0.05113,-0.247107 0.146455,-0.489453 0.149136,-0.743185 -0.144384,-0.200648 0.01483,-0.434324 0.185926,-0.489916 0.05633,-0.314191 0.284166,-0.708178 0.161777,-0.991789 -0.01196,-0.223817 -0.04802,-0.459417 0.211639,-0.492805 0.159972,-0.226374 -0.528314,-0.539757 -0.0016,-0.505234 0.276016,-0.05762 0.791657,0.143288 0.827537,0.354896 -0.157716,0.06662 -0.584524,0.19381 -0.320565,0.386222 0.192512,0.02117 0.421616,0.171915 0.582482,0.177441 0.137945,-0.417606 0.272905,-0.836162 0.406199,-1.255237 -0.310024,-0.05776 -0.620026,-0.115665 -0.930067,-0.173331 0.07093,-0.211163 -0.04489,-0.649699 0.321348,-0.454906 0.221162,0.160292 0.864708,0.148411 0.780337,-0.189713 -0.145614,-0.294508 -0.663336,-0.170108 -0.9021,-0.412176 5.63e-4,-0.28953 -0.217009,-0.440362 -0.390534,-0.625245 -0.31538,0.004 -0.436679,-0.321837 -0.08316,-0.380981 0.194271,-0.08006 -0.03995,-0.564907 0.276119,-0.299131 0.429574,0.285951 0.910875,0.484931 1.421344,0.566327 1.103913,0.216732 2.213739,0.431952 3.336787,0.516394 0.79878,0.01687 1.59207,-0.09383 2.38272,-0.185885 0.27629,0.154209 -0.35698,0.348082 -0.15758,0.61297 0.23125,0.493131 -0.37297,0.37725 -0.66784,0.424477 -0.37761,0.03204 -0.50952,0.525579 -0.94022,0.328669 -0.27116,0.022 -0.690936,-0.20282 -0.832391,0.101601 -0.134305,0.0718 0.121155,0.322348 0.230261,0.36316 0.29631,0.03601 0.60196,0.03328 0.88831,0.121142 -0.007,0.187422 -0.0924,0.361266 -0.14491,0.539555 -0.3941,-0.05461 -0.785666,-0.1398 -1.181815,-0.170108 -0.199917,0.254273 -0.152186,0.656294 -0.206651,0.974173 -0.01265,0.147956 -0.02527,0.295755 -0.03781,0.443641 0.174557,0.04253 0.348944,0.08605 0.523535,0.128524 0.112975,-0.230581 -0.100086,-0.343528 -0.215612,-0.514769 0.01651,-0.207013 0.568973,-0.0465 0.754123,0.02068 0.16194,0.06472 0.49633,0.188917 0.15659,0.285607 -0.15776,0.08317 -0.35235,0.192381 -0.23186,0.425134 -0.083,0.347448 -0.2886,0.656385 -0.32775,1.030615 -0.0463,0.309227 0.046,0.555492 -0.175587,0.841623 -0.05462,0.271647 -0.01499,0.79641 -0.440136,0.573154 -0.147671,-0.01851 -0.269457,-0.05113 -0.166597,-0.214487 0.0516,-0.179537 0.103148,-0.359259 0.154682,-0.538892 -0.131323,-0.03247 -0.262647,-0.06498 -0.393868,-0.09726 -0.04181,0.243832 -0.06888,0.491814 -0.08538,0.736449 -0.221491,0.08309 -0.47025,-0.0548 -0.70032,-0.09138 -0.197017,0.0101 -0.149136,-0.127597 -0.103818,-0.263933 0.04306,-0.174554 0.08604,-0.349266 0.128997,-0.523931 -0.142209,-0.03488 -0.284543,-0.07004 -0.42684,-0.105157 -0.03359,0.285952 -0.06699,0.571931 -0.100294,0.857926 -0.192808,-0.05405 -0.389075,-0.09894 -0.575579,-0.173006 z m 1.228682,-1.155609 c 0.0432,-0.329983 0.134862,-0.650765 0.211531,-0.973955 -0.138703,-0.03422 -0.277348,-0.06823 -0.416036,-0.102456 -0.09318,0.358854 -0.147181,0.726114 -0.211617,1.09082 0.144012,0.0097 0.443245,0.280499 0.416152,-0.0145 z m 1.040533,0.333484 c 0.171662,0.101963 0.142866,-0.127226 0.186863,-0.236111 0.06355,-0.258195 0.127091,-0.516177 0.190692,-0.774277 -0.153686,-0.03763 -0.307421,-0.07527 -0.460971,-0.113913 -0.05882,0.355723 -0.159047,0.707789 -0.176087,1.067973 0.04414,0.07864 0.185866,0.0074 0.259504,0.05609 z m -4.137553,-1.063377 c 0.170277,0.105277 0.152001,-0.10069 0.189907,-0.213878 0.0584,-0.236964 0.116794,-0.474069 0.175208,-0.711082 -0.217332,-0.04897 -0.423752,-0.134372 -0.631895,-0.212045 -0.08723,0.354371 -0.17455,0.708718 -0.261823,1.063052 0.176895,0.01914 0.354787,0.03409 0.528555,0.07387 z m 1.301729,-0.197646 c 0.04233,-0.155136 0.08474,-0.31011 0.127059,-0.465183 -0.167457,-0.0409 -0.334636,-0.08267 -0.502023,-0.123519 -0.06192,0.299419 -0.176916,0.592899 -0.18534,0.89947 0.06491,0.09215 0.394091,0.213423 0.449919,0.0936 0.03677,-0.134778 0.07358,-0.269477 0.110425,-0.404209 z m 1.009842,-2.763165 c 0.183071,-0.387409 -0.521857,-0.619093 -0.669068,-0.303731 -0.230353,0.203023 0.265391,0.413908 0.474467,0.415233 0.140675,0.04101 0.197422,0.06226 0.194563,-0.111637 z m 1.53351,0.270076 c 0.376908,-0.129384 0.02357,-0.490487 -0.256295,-0.423048 -0.347791,-0.199902 -0.706928,0.556558 -0.198267,0.470875 0.15271,0.03475 0.319022,0.04549 0.454585,-0.04784 z"
       id="path59840" />
    <path
       style="mix-blend-mode:normal;fill:#000000;fill-opacity:1;stroke:#000000;stroke-width:0.0725336;stroke-miterlimit:4;stroke-dasharray:none;stroke-opacity:1"
       d="m 86.315085,83.992005 c -0.05458,-0.155316 0.164788,-0.324551 0.126011,-0.507946 0.02441,-0.1511 0.201236,-0.164127 0.216809,-0.339971 0.06339,-0.146771 0.140644,-0.301829 0.110054,-0.44604 0.01911,-0.110678 0.04339,-0.169363 0.142838,-0.173012 0.128109,-0.100733 -0.215701,-0.318864 0.01059,-0.307282 0.189741,0.01399 0.386609,0.112833 0.502912,0.247065 -0.129357,0.05373 -0.282314,0.04122 -0.304782,0.211303 0.06423,0.02999 0.13692,0.05693 0.204404,0.08572 0.115424,-0.212621 0.220167,-0.430746 0.325854,-0.6483 -0.404054,-0.160288 -0.816507,-0.300362 -1.230868,-0.430969 -0.10979,0.205818 -0.201957,0.420603 -0.301964,0.631307 0.09262,0.02293 0.244193,0.180669 0.276829,0.0231 -0.02208,-0.04955 -0.17322,-0.255334 -0.04197,-0.207414 0.169061,0.0064 0.337167,0.0792 0.452598,0.199356 -0.105044,0.06453 -0.309081,0.116142 -0.212141,0.257328 -0.09982,0.170214 -0.231594,0.335528 -0.253905,0.547693 0.02031,0.186039 -0.159797,0.324598 -0.20068,0.502388 -0.02203,0.07489 -0.04785,0.14074 -0.127788,0.07653 -0.04152,-0.03447 -0.174506,-0.03286 -0.144294,-0.09538 0.04991,-0.108391 0.09992,-0.216703 0.149852,-0.325065 -0.08183,0.02172 -0.208736,-0.108542 -0.241678,-0.01978 -0.04315,0.10478 -0.08623,0.209563 -0.129396,0.314338 -0.127107,-0.05757 -0.265659,-0.09614 -0.382744,-0.171292 0.04872,-0.1013 0.118562,-0.202514 0.17097,-0.3071 -0.101622,-0.03946 -0.200065,-0.09033 -0.306847,-0.113703 -0.07285,0.09841 -0.05038,0.322951 -0.126502,0.375462 -0.08347,-0.03418 -0.166755,-0.0688 -0.250219,-0.102945 0.04606,-0.124934 0.114762,-0.243936 0.136051,-0.37612 -0.05963,-0.116029 0.04178,-0.225476 0.135407,-0.241085 0.054,-0.159532 0.20376,-0.347278 0.162122,-0.504863 0.01116,-0.11773 0.01097,-0.243495 0.149039,-0.240561 0.101206,-0.105573 -0.233399,-0.323046 0.0388,-0.263765 0.148529,-0.0087 0.401875,0.136807 0.404019,0.250027 -0.08754,0.02231 -0.320212,0.05524 -0.19755,0.176435 0.0988,0.02611 0.206543,0.12274 0.290049,0.138224 0.104685,-0.207113 0.207912,-0.414946 0.310311,-0.623182 -0.157245,-0.05443 -0.314487,-0.108939 -0.471749,-0.163314 0.05354,-0.104647 0.02741,-0.342548 0.203323,-0.212198 0.102813,0.10096 0.439597,0.145164 0.422044,-0.03796 -0.05292,-0.16509 -0.332815,-0.140739 -0.438445,-0.285758 0.0229,-0.151025 -0.07873,-0.246789 -0.154806,-0.35686 -0.164863,-0.02265 -0.202642,-0.202155 -0.0138,-0.205286 0.107653,-0.02649 0.02343,-0.297908 0.167529,-0.134462 0.201743,0.182881 0.437316,0.324409 0.697313,0.406877 0.559064,0.199594 1.121334,0.398837 1.700749,0.530887 0.415508,0.07139 0.838132,0.07578 1.257922,0.08967 0.13208,0.102114 -0.213542,0.153671 -0.130247,0.307507 0.08203,0.275442 -0.224188,0.167643 -0.381746,0.169174 -0.199576,-0.01267 -0.30707,0.234332 -0.516388,0.09786 -0.143197,-0.0098 -0.344654,-0.159967 -0.442327,-0.01229 -0.0757,0.02696 0.03795,0.17772 0.0917,0.207545 0.151819,0.04201 0.311521,0.06455 0.454056,0.132817 -0.01872,0.0972 -0.07655,0.181274 -0.1179,0.270193 -0.201381,-0.05935 -0.399033,-0.134519 -0.603379,-0.181369 -0.124252,0.117031 -0.130832,0.330546 -0.184148,0.492152 -0.01815,0.07623 -0.03634,0.152348 -0.05449,0.228531 0.08773,0.03585 0.175319,0.07224 0.263124,0.108107 0.07702,-0.111472 -0.0253,-0.187117 -0.07217,-0.285513 0.02486,-0.106745 0.300548,0.02034 0.391901,0.06986 0.07946,0.04647 0.244195,0.137469 0.05931,0.161272 -0.08888,0.03091 -0.198933,0.07275 -0.154276,0.203671 -0.07052,0.174789 -0.202015,0.319907 -0.251775,0.512121 -0.04836,0.157736 -0.01961,0.29347 -0.157585,0.42542 -0.04978,0.137506 -0.07027,0.414407 -0.274575,0.264606 -0.07561,-0.02129 -0.136618,-0.04781 -0.07014,-0.12499 0.04097,-0.08962 0.08194,-0.179384 0.122948,-0.269087 -0.06598,-0.02726 -0.131985,-0.05447 -0.197895,-0.0816 -0.04091,0.123988 -0.07445,0.25124 -0.102264,0.377602 -0.12206,0.02605 -0.241091,-0.06543 -0.358278,-0.102548 -0.10357,-0.01021 -0.06784,-0.07827 -0.03345,-0.145863 0.03615,-0.08771 0.07226,-0.175489 0.108372,-0.263294 -0.0715,-0.02934 -0.143027,-0.05884 -0.214488,-0.08829 -0.03989,0.1466 -0.07975,0.293199 -0.119526,0.439825 -0.09637,-0.04331 -0.195271,-0.08211 -0.286793,-0.135388 z m 0.731688,-0.506755 c 0.0484,-0.168834 0.121342,-0.329015 0.186682,-0.491659 -0.06973,-0.02872 -0.139378,-0.05734 -0.209059,-0.08606 -0.07674,0.179932 -0.133687,0.367372 -0.195895,0.552632 0.07438,0.01626 0.209341,0.181085 0.218301,0.02501 z m 0.516842,0.25554 c 0.08162,0.06665 0.08453,-0.05522 0.115991,-0.10856 0.05339,-0.129736 0.106764,-0.259392 0.160175,-0.389092 -0.07721,-0.03171 -0.154541,-0.06337 -0.231622,-0.09555 -0.05859,0.181029 -0.138452,0.356879 -0.175546,0.543497 0.01664,0.04451 0.0964,0.01834 0.131021,0.04959 z m -2.075749,-0.87905 c 0.08062,0.06829 0.0872,-0.04065 0.11582,-0.09673 0.04904,-0.119054 0.09809,-0.238234 0.14713,-0.357329 -0.109544,-0.04258 -0.210583,-0.103305 -0.313122,-0.160137 -0.07328,0.178079 -0.146619,0.356147 -0.219908,0.534209 0.09081,0.02384 0.182447,0.0456 0.270021,0.07995 z m 0.694762,-0.0011 c 0.03424,-0.07765 0.0685,-0.155183 0.102757,-0.232798 -0.08417,-0.0345 -0.168135,-0.06935 -0.252289,-0.103777 -0.05576,0.151383 -0.138773,0.29553 -0.167189,0.45484 0.02664,0.0532 0.188931,0.142233 0.227449,0.08408 0.02974,-0.06744 0.05952,-0.134859 0.0893,-0.202272 z m 0.743436,-1.362761 c 0.125897,-0.187797 -0.223818,-0.363938 -0.325336,-0.210912 -0.136126,0.0879 0.106065,0.23678 0.215053,0.253849 0.0702,0.03246 0.09816,0.04795 0.110262,-0.04299 z m 0.779054,0.261075 c 0.206772,-0.03823 0.05071,-0.2541 -0.100582,-0.240836 -0.165828,-0.13155 -0.412495,0.235043 -0.140361,0.230193 0.07695,0.03008 0.162898,0.04874 0.240957,0.01059 z"
       id="path59840-9" />
    <path
       style="fill:#565462;fill-opacity:1;stroke:#000000;stroke-width:0.521067;stroke-linecap:butt;stroke-linejoin:miter;stroke-miterlimit:4;stroke-dasharray:none;stroke-opacity:1"
       d="m 109.4198,105.14015 c -11.036496,-0.70528 -17.69017,-0.9003 -23.096611,-4.83196 l -0.433049,2.91697 c 9.461902,4.07464 12.702106,3.91844 22.26668,4.30762 0.63538,-1.51183 0.61348,-1.31056 1.26298,-2.39263 z"
       id="path4445" />
    <path
       style="fill:#565462;fill-opacity:1;stroke:#000000;stroke-width:0.521067;stroke-linecap:butt;stroke-linejoin:miter;stroke-miterlimit:4;stroke-dasharray:none;stroke-opacity:1"
       d="M 107.51871,110.88258 C 87.039318,108.93351 87.291536,98.513017 83.341005,91.207201 l -1.078732,4.142586 c 1.454216,3.534094 3.919455,16.300813 24.649417,18.704473 0.37769,-1.14501 0.49149,-2.09009 0.60702,-3.17168 z"
       id="path4445-3" />
    <path
       style="fill:#6b6e7f;fill-opacity:1;stroke:#000000;stroke-width:0.521067;stroke-linecap:butt;stroke-linejoin:miter;stroke-miterlimit:4;stroke-dasharray:none;stroke-opacity:1"
       d="m 88.334101,83.056319 c 0,0 -0.761021,0.450126 -0.783767,0.561711 -0.02275,0.111589 0.02147,1.551435 0.02147,1.551435 0,0 1.013831,0.83927 1.132377,0.909726 0.118549,0.07046 1.921,-0.731909 1.921,-0.731909 -0.155592,-1.770239 -0.472082,-3.272895 -2.291077,-2.290963 z"
       id="path52217" />
    <path
       style="fill:#ffffff;fill-opacity:1;stroke:#000000;stroke-width:0.521067;stroke-linecap:round;stroke-linejoin:round;stroke-miterlimit:4;stroke-dasharray:none;stroke-opacity:1;paint-order:fill markers stroke"
       d="m 87.181261,90.304715 1.83348,-3.094926 -2.040807,-1.089275 -1.659663,3.037416 z"
       id="path52596" />
    <path
       style="fill:#c9b8bc;fill-opacity:1;stroke:#000000;stroke-width:0.521067;stroke-linecap:butt;stroke-linejoin:miter;stroke-miterlimit:4;stroke-dasharray:none;stroke-opacity:1"
       d="m 86.108743,86.101321 c 0.659144,1.06477 1.173607,0.549465 1.984069,1.428594 0.685317,1.07678 2.579927,1.822351 2.91487,0.458054 0.15382,-0.706434 0.192597,-1.483129 -0.142702,-2.146235 -0.192812,-0.412705 -0.07287,-0.500963 -0.533881,-0.683073 -0.310809,-0.158331 -0.649543,-0.0393 -0.96942,0.01176 -0.521327,0.04044 -0.925751,-0.417935 -1.075956,-0.876463 -0.316638,-1.476788 -1.463678,-1.335057 -2.30888,-0.211184 -0.267522,0.45457 -0.128886,1.012499 -0.03052,1.496491 0.04372,0.176962 0.09522,0.352408 0.162405,0.522003 z"
       id="path50895" />
    <path
       style="fill:#c9b8bc;fill-opacity:1;stroke:#000000;stroke-width:0.521067;stroke-linecap:butt;stroke-linejoin:miter;stroke-miterlimit:4;stroke-dasharray:none;stroke-opacity:1"
       d="m 87.618503,116.70891 c 0,0 -1.403908,1.28193 -3.632845,1.0685 -2.228935,-0.21343 -2.301246,-2.05317 -0.844345,-2.73309 1.456901,-0.67992 0.849352,-0.60774 0.849352,-0.60774 l 3.627838,2.27233"
       id="path62639-9-1" />
    <g
       id="g83648"
       transform="matrix(0.15830139,-0.73490933,0.73490933,0.15830139,141.30674,10.92814)">
      <rect
         style="opacity:1;fill:#2c2b3a;fill-opacity:1;stroke:#000000;stroke-width:0.703899;stroke-linecap:round;stroke-linejoin:round;stroke-miterlimit:4;stroke-dasharray:none;stroke-opacity:1;paint-order:normal"
         id="rect76742"
         width="2.859992"
         height="10.25872"
         x="-142.80516"
         y="-31.774113"
         ry="0.55377227"
         transform="rotate(-0.28346803)" />
      <rect
         style="opacity:1;fill:#b2b8bd;fill-opacity:1;stroke:#000000;stroke-width:0.703899;stroke-linecap:round;stroke-linejoin:round;stroke-miterlimit:4;stroke-dasharray:none;stroke-opacity:1;paint-order:normal"
         id="rect80121"
         width="2.946023"
         height="2.2961736"
         x="-142.9599"
         y="-33.379696"
         ry="0" />
      <path
         id="rect80121-6"
         style="fill:#c9cdd0;stroke:#000000;stroke-width:0.703899;stroke-linecap:round;stroke-linejoin:round;stroke-miterlimit:4;stroke-dasharray:none;stroke-opacity:1"
         d="m -140.37819,-63.584856 -0.0697,30.205122 h -2.07806 l 0.0697,-24.93387 c 6.6e-4,-0.844307 0.0908,-0.951353 0.19672,-1.311705 0.5172,-1.756838 1.85853,-6.036927 1.88134,-3.959547 z" />
      <rect
         style="opacity:1;fill:#565462;fill-opacity:1;stroke:#000000;stroke-width:0.352026;stroke-linecap:round;stroke-linejoin:round;stroke-miterlimit:4;stroke-dasharray:none;stroke-opacity:1;paint-order:normal"
         id="rect76742-3"
         width="0.77451599"
         height="8.0833683"
         x="31.018805"
         y="-146.25816"
         ry="0.1609033"
         transform="matrix(0.02610752,-0.99965914,0.99999411,-0.00343195,0,0)"
         rx="0.361009" />
    </g>
    <path
       style="fill:#c9b8bc;fill-opacity:1;stroke:#000000;stroke-width:0.521067;stroke-linecap:butt;stroke-linejoin:miter;stroke-miterlimit:4;stroke-dasharray:none;stroke-opacity:1"
       d="m 102.80711,107.84751 c 0,0 -0.31239,1.87529 -2.19721,3.0841 -1.884794,1.20879 -3.077943,-0.19346 -2.35206,-1.62802 0.725866,-1.43456 0.292625,-1.00254 0.292625,-1.00254 l 4.256645,-0.45354"
       id="path62639-9-1-2" />
    <path
       style="fill:none;stroke:#000000;stroke-width:0.52916667;stroke-linecap:round;stroke-linejoin:round;stroke-opacity:1;stroke-miterlimit:4;stroke-dasharray:none;paint-order:stroke fill markers"
       d="m 111.48338,88.278287 c 1.08285,0.120241 1.42929,-0.141061 2.36779,-0.593874 -1.0262,0.572774 -1.68219,0.426542 0.0565,1.000933"
       id="path87281" />
  </g>
</svg>
